ISO-10303-21;
HEADER;
/* Generated by software containing ST-Developer
 * from STEP Tools, Inc. (www.steptools.com) 
 */

FILE_DESCRIPTION(
/* description */ ('STEP AP214'),
/* implementation_level */ '2;1');

FILE_NAME(
/* name */ 'rack_below_part.step',
/* time_stamp */ '2026-09-12T10:23:42+02:00',
/* author */ (''),
/* organization */ (''),
/* preprocessor_version */ 'ST-DEVELOPER v20.2',
/* originating_system */ 'Autodesk Translation Framework v15.15.0.0',
/* authorisation */ '');

FILE_SCHEMA (('AUTOMOTIVE_DESIGN { 1 0 10303 214 3 1 1 }'));
ENDSEC;

DATA;
#10=MECHANICAL_DESIGN_GEOMETRIC_PRESENTATION_REPRESENTATION('',(#17),#1206);
#11=ITEM_DEFINED_TRANSFORMATION($,$,#706,#782);
#12=(
REPRESENTATION_RELATIONSHIP($,$,#1217,#1216)
REPRESENTATION_RELATIONSHIP_WITH_TRANSFORMATION(#11)
SHAPE_REPRESENTATION_RELATIONSHIP()
);
#13=CONTEXT_DEPENDENT_SHAPE_REPRESENTATION(#12,#1215);
#14=NEXT_ASSEMBLY_USAGE_OCCURRENCE('rack_below_part:1',
'rack_below_part:1','rack_below_part:1',#1219,#1220,'rack_below_part:1');
#15=SHAPE_REPRESENTATION_RELATIONSHIP('SRR','None',#1217,#16);
#16=ADVANCED_BREP_SHAPE_REPRESENTATION('',(#18),#1205);
#17=STYLED_ITEM('',(#1232),#18);
#18=MANIFOLD_SOLID_BREP('Body1',#692);
#19=FACE_BOUND('',#83,.T.);
#20=FACE_BOUND('',#84,.T.);
#21=FACE_BOUND('',#85,.T.);
#22=FACE_BOUND('',#93,.T.);
#23=FACE_BOUND('',#94,.T.);
#24=FACE_BOUND('',#95,.T.);
#25=PLANE('',#710);
#26=PLANE('',#714);
#27=PLANE('',#715);
#28=PLANE('',#716);
#29=PLANE('',#717);
#30=PLANE('',#718);
#31=PLANE('',#747);
#32=PLANE('',#748);
#33=PLANE('',#762);
#34=PLANE('',#765);
#35=PLANE('',#766);
#36=PLANE('',#767);
#37=PLANE('',#768);
#38=PLANE('',#770);
#39=PLANE('',#771);
#40=FACE_OUTER_BOUND('',#75,.T.);
#41=FACE_OUTER_BOUND('',#76,.T.);
#42=FACE_OUTER_BOUND('',#77,.T.);
#43=FACE_OUTER_BOUND('',#78,.T.);
#44=FACE_OUTER_BOUND('',#79,.T.);
#45=FACE_OUTER_BOUND('',#80,.T.);
#46=FACE_OUTER_BOUND('',#81,.T.);
#47=FACE_OUTER_BOUND('',#82,.T.);
#48=FACE_OUTER_BOUND('',#86,.T.);
#49=FACE_OUTER_BOUND('',#87,.T.);
#50=FACE_OUTER_BOUND('',#88,.T.);
#51=FACE_OUTER_BOUND('',#89,.T.);
#52=FACE_OUTER_BOUND('',#90,.T.);
#53=FACE_OUTER_BOUND('',#91,.T.);
#54=FACE_OUTER_BOUND('',#92,.T.);
#55=FACE_OUTER_BOUND('',#96,.T.);
#56=FACE_OUTER_BOUND('',#97,.T.);
#57=FACE_OUTER_BOUND('',#98,.T.);
#58=FACE_OUTER_BOUND('',#99,.T.);
#59=FACE_OUTER_BOUND('',#100,.T.);
#60=FACE_OUTER_BOUND('',#101,.T.);
#61=FACE_OUTER_BOUND('',#102,.T.);
#62=FACE_OUTER_BOUND('',#103,.T.);
#63=FACE_OUTER_BOUND('',#104,.T.);
#64=FACE_OUTER_BOUND('',#105,.T.);
#65=FACE_OUTER_BOUND('',#106,.T.);
#66=FACE_OUTER_BOUND('',#107,.T.);
#67=FACE_OUTER_BOUND('',#108,.T.);
#68=FACE_OUTER_BOUND('',#109,.T.);
#69=FACE_OUTER_BOUND('',#110,.T.);
#70=FACE_OUTER_BOUND('',#111,.T.);
#71=FACE_OUTER_BOUND('',#112,.T.);
#72=FACE_OUTER_BOUND('',#113,.T.);
#73=FACE_OUTER_BOUND('',#114,.T.);
#74=FACE_OUTER_BOUND('',#115,.T.);
#75=EDGE_LOOP('',(#439,#440,#441,#442));
#76=EDGE_LOOP('',(#443,#444,#445,#446));
#77=EDGE_LOOP('',(#447,#448,#449,#450));
#78=EDGE_LOOP('',(#451,#452,#453,#454));
#79=EDGE_LOOP('',(#455,#456,#457,#458));
#80=EDGE_LOOP('',(#459,#460,#461,#462));
#81=EDGE_LOOP('',(#463,#464,#465,#466));
#82=EDGE_LOOP('',(#467,#468,#469,#470,#471,#472,#473,#474,#475,#476,#477,
#478,#479,#480,#481,#482,#483,#484,#485,#486,#487,#488,#489,#490,#491,#492,
#493,#494,#495,#496));
#83=EDGE_LOOP('',(#497));
#84=EDGE_LOOP('',(#498));
#85=EDGE_LOOP('',(#499));
#86=EDGE_LOOP('',(#500,#501,#502,#503));
#87=EDGE_LOOP('',(#504,#505,#506,#507));
#88=EDGE_LOOP('',(#508,#509,#510,#511));
#89=EDGE_LOOP('',(#512,#513,#514,#515));
#90=EDGE_LOOP('',(#516,#517,#518,#519));
#91=EDGE_LOOP('',(#520,#521,#522,#523));
#92=EDGE_LOOP('',(#524,#525,#526,#527,#528,#529,#530,#531,#532,#533,#534,
#535,#536,#537,#538,#539,#540,#541,#542,#543,#544,#545,#546,#547,#548,#549,
#550,#551,#552,#553));
#93=EDGE_LOOP('',(#554));
#94=EDGE_LOOP('',(#555));
#95=EDGE_LOOP('',(#556));
#96=EDGE_LOOP('',(#557,#558,#559,#560));
#97=EDGE_LOOP('',(#561,#562,#563,#564));
#98=EDGE_LOOP('',(#565,#566,#567,#568));
#99=EDGE_LOOP('',(#569,#570,#571,#572));
#100=EDGE_LOOP('',(#573,#574,#575,#576));
#101=EDGE_LOOP('',(#577,#578,#579,#580));
#102=EDGE_LOOP('',(#581,#582,#583,#584));
#103=EDGE_LOOP('',(#585,#586,#587,#588));
#104=EDGE_LOOP('',(#589,#590,#591,#592));
#105=EDGE_LOOP('',(#593,#594,#595,#596));
#106=EDGE_LOOP('',(#597,#598,#599,#600));
#107=EDGE_LOOP('',(#601,#602,#603,#604));
#108=EDGE_LOOP('',(#605,#606,#607,#608));
#109=EDGE_LOOP('',(#609,#610,#611,#612));
#110=EDGE_LOOP('',(#613,#614,#615,#616));
#111=EDGE_LOOP('',(#617,#618,#619,#620));
#112=EDGE_LOOP('',(#621,#622,#623,#624));
#113=EDGE_LOOP('',(#625,#626,#627,#628));
#114=EDGE_LOOP('',(#629,#630,#631,#632));
#115=EDGE_LOOP('',(#633,#634,#635,#636));
#116=LINE('',#1005,#175);
#117=LINE('',#1008,#176);
#118=LINE('',#1011,#177);
#119=LINE('',#1013,#178);
#120=LINE('',#1014,#179);
#121=LINE('',#1020,#180);
#122=LINE('',#1023,#181);
#123=LINE('',#1025,#182);
#124=LINE('',#1026,#183);
#125=LINE('',#1029,#184);
#126=LINE('',#1031,#185);
#127=LINE('',#1032,#186);
#128=LINE('',#1035,#187);
#129=LINE('',#1037,#188);
#130=LINE('',#1038,#189);
#131=LINE('',#1041,#190);
#132=LINE('',#1043,#191);
#133=LINE('',#1044,#192);
#134=LINE('',#1049,#193);
#135=LINE('',#1053,#194);
#136=LINE('',#1057,#195);
#137=LINE('',#1061,#196);
#138=LINE('',#1077,#197);
#139=LINE('',#1081,#198);
#140=LINE('',#1085,#199);
#141=LINE('',#1089,#200);
#142=LINE('',#1099,#201);
#143=LINE('',#1103,#202);
#144=LINE('',#1108,#203);
#145=LINE('',#1111,#204);
#146=LINE('',#1114,#205);
#147=LINE('',#1117,#206);
#148=LINE('',#1120,#207);
#149=LINE('',#1124,#208);
#150=LINE('',#1125,#209);
#151=LINE('',#1126,#210);
#152=LINE('',#1131,#211);
#153=LINE('',#1135,#212);
#154=LINE('',#1139,#213);
#155=LINE('',#1143,#214);
#156=LINE('',#1153,#215);
#157=LINE('',#1158,#216);
#158=LINE('',#1162,#217);
#159=LINE('',#1165,#218);
#160=LINE('',#1166,#219);
#161=LINE('',#1168,#220);
#162=LINE('',#1170,#221);
#163=LINE('',#1172,#222);
#164=LINE('',#1173,#223);
#165=LINE('',#1175,#224);
#166=LINE('',#1176,#225);
#167=LINE('',#1178,#226);
#168=LINE('',#1179,#227);
#169=LINE('',#1181,#228);
#170=LINE('',#1182,#229);
#171=LINE('',#1185,#230);
#172=LINE('',#1186,#231);
#173=LINE('',#1188,#232);
#174=LINE('',#1189,#233);
#175=VECTOR('',#791,10.);
#176=VECTOR('',#794,10.);
#177=VECTOR('',#797,10.);
#178=VECTOR('',#798,10.);
#179=VECTOR('',#799,10.);
#180=VECTOR('',#806,10.);
#181=VECTOR('',#809,10.);
#182=VECTOR('',#810,10.);
#183=VECTOR('',#811,10.);
#184=VECTOR('',#814,10.);
#185=VECTOR('',#815,10.);
#186=VECTOR('',#816,10.);
#187=VECTOR('',#819,1000.);
#188=VECTOR('',#820,1000.);
#189=VECTOR('',#821,1000.);
#190=VECTOR('',#824,1000.);
#191=VECTOR('',#825,1000.);
#192=VECTOR('',#826,1000.);
#193=VECTOR('',#831,1000.);
#194=VECTOR('',#834,1000.);
#195=VECTOR('',#837,1000.);
#196=VECTOR('',#840,1000.);
#197=VECTOR('',#855,1000.);
#198=VECTOR('',#858,1000.);
#199=VECTOR('',#861,1000.);
#200=VECTOR('',#864,1000.);
#201=VECTOR('',#875,1.55);
#202=VECTOR('',#880,1.55);
#203=VECTOR('',#887,1.55);
#204=VECTOR('',#890,1000.);
#205=VECTOR('',#893,1000.);
#206=VECTOR('',#896,1000.);
#207=VECTOR('',#899,1000.);
#208=VECTOR('',#902,1000.);
#209=VECTOR('',#903,1000.);
#210=VECTOR('',#904,1000.);
#211=VECTOR('',#909,1000.);
#212=VECTOR('',#912,1000.);
#213=VECTOR('',#915,1000.);
#214=VECTOR('',#918,1000.);
#215=VECTOR('',#929,1000.);
#216=VECTOR('',#934,1000.);
#217=VECTOR('',#937,1000.);
#218=VECTOR('',#942,1000.);
#219=VECTOR('',#943,1000.);
#220=VECTOR('',#946,1000.);
#221=VECTOR('',#949,1000.);
#222=VECTOR('',#952,1000.);
#223=VECTOR('',#953,1000.);
#224=VECTOR('',#956,1000.);
#225=VECTOR('',#957,1000.);
#226=VECTOR('',#960,1000.);
#227=VECTOR('',#961,1000.);
#228=VECTOR('',#964,1000.);
#229=VECTOR('',#965,1000.);
#230=VECTOR('',#970,1000.);
#231=VECTOR('',#971,1000.);
#232=VECTOR('',#974,1000.);
#233=VECTOR('',#975,1000.);
#234=CIRCLE('',#708,1.);
#235=CIRCLE('',#709,1.);
#236=CIRCLE('',#712,1.);
#237=CIRCLE('',#713,1.);
#238=CIRCLE('',#719,2.);
#239=CIRCLE('',#720,3.);
#240=CIRCLE('',#721,2.);
#241=CIRCLE('',#722,1.);
#242=CIRCLE('',#723,1.);
#243=CIRCLE('',#724,8.);
#244=CIRCLE('',#725,24.);
#245=CIRCLE('',#726,1.);
#246=CIRCLE('',#727,24.);
#247=CIRCLE('',#728,8.);
#248=CIRCLE('',#729,0.999999999999999);
#249=CIRCLE('',#730,0.999999999999999);
#250=CIRCLE('',#731,2.);
#251=CIRCLE('',#732,3.);
#252=CIRCLE('',#733,2.);
#253=CIRCLE('',#734,1.55);
#254=CIRCLE('',#735,1.55);
#255=CIRCLE('',#736,1.55);
#256=CIRCLE('',#738,1.55);
#257=CIRCLE('',#740,1.55);
#258=CIRCLE('',#742,1.55);
#259=CIRCLE('',#744,24.);
#260=CIRCLE('',#746,24.);
#261=CIRCLE('',#749,2.);
#262=CIRCLE('',#750,3.);
#263=CIRCLE('',#751,2.);
#264=CIRCLE('',#752,0.999999999999999);
#265=CIRCLE('',#753,0.999999999999999);
#266=CIRCLE('',#754,8.);
#267=CIRCLE('',#755,1.);
#268=CIRCLE('',#756,8.);
#269=CIRCLE('',#757,1.);
#270=CIRCLE('',#758,1.);
#271=CIRCLE('',#759,2.);
#272=CIRCLE('',#760,3.);
#273=CIRCLE('',#761,2.);
#274=VERTEX_POINT('',#1001);
#275=VERTEX_POINT('',#1002);
#276=VERTEX_POINT('',#1004);
#277=VERTEX_POINT('',#1006);
#278=VERTEX_POINT('',#1010);
#279=VERTEX_POINT('',#1012);
#280=VERTEX_POINT('',#1016);
#281=VERTEX_POINT('',#1018);
#282=VERTEX_POINT('',#1022);
#283=VERTEX_POINT('',#1024);
#284=VERTEX_POINT('',#1028);
#285=VERTEX_POINT('',#1030);
#286=VERTEX_POINT('',#1034);
#287=VERTEX_POINT('',#1036);
#288=VERTEX_POINT('',#1040);
#289=VERTEX_POINT('',#1042);
#290=VERTEX_POINT('',#1046);
#291=VERTEX_POINT('',#1048);
#292=VERTEX_POINT('',#1050);
#293=VERTEX_POINT('',#1052);
#294=VERTEX_POINT('',#1054);
#295=VERTEX_POINT('',#1056);
#296=VERTEX_POINT('',#1058);
#297=VERTEX_POINT('',#1060);
#298=VERTEX_POINT('',#1062);
#299=VERTEX_POINT('',#1064);
#300=VERTEX_POINT('',#1066);
#301=VERTEX_POINT('',#1068);
#302=VERTEX_POINT('',#1070);
#303=VERTEX_POINT('',#1072);
#304=VERTEX_POINT('',#1074);
#305=VERTEX_POINT('',#1076);
#306=VERTEX_POINT('',#1078);
#307=VERTEX_POINT('',#1080);
#308=VERTEX_POINT('',#1082);
#309=VERTEX_POINT('',#1084);
#310=VERTEX_POINT('',#1086);
#311=VERTEX_POINT('',#1088);
#312=VERTEX_POINT('',#1091);
#313=VERTEX_POINT('',#1093);
#314=VERTEX_POINT('',#1095);
#315=VERTEX_POINT('',#1098);
#316=VERTEX_POINT('',#1102);
#317=VERTEX_POINT('',#1106);
#318=VERTEX_POINT('',#1110);
#319=VERTEX_POINT('',#1112);
#320=VERTEX_POINT('',#1116);
#321=VERTEX_POINT('',#1118);
#322=VERTEX_POINT('',#1122);
#323=VERTEX_POINT('',#1123);
#324=VERTEX_POINT('',#1128);
#325=VERTEX_POINT('',#1130);
#326=VERTEX_POINT('',#1132);
#327=VERTEX_POINT('',#1134);
#328=VERTEX_POINT('',#1136);
#329=VERTEX_POINT('',#1138);
#330=VERTEX_POINT('',#1140);
#331=VERTEX_POINT('',#1142);
#332=VERTEX_POINT('',#1144);
#333=VERTEX_POINT('',#1148);
#334=VERTEX_POINT('',#1150);
#335=VERTEX_POINT('',#1152);
#336=VERTEX_POINT('',#1155);
#337=VERTEX_POINT('',#1157);
#338=VERTEX_POINT('',#1159);
#339=VERTEX_POINT('',#1161);
#340=EDGE_CURVE('',#274,#275,#234,.T.);
#341=EDGE_CURVE('',#275,#276,#116,.T.);
#342=EDGE_CURVE('',#276,#277,#235,.T.);
#343=EDGE_CURVE('',#277,#274,#117,.T.);
#344=EDGE_CURVE('',#278,#275,#118,.T.);
#345=EDGE_CURVE('',#279,#278,#119,.T.);
#346=EDGE_CURVE('',#276,#279,#120,.T.);
#347=EDGE_CURVE('',#280,#279,#236,.T.);
#348=EDGE_CURVE('',#278,#281,#237,.T.);
#349=EDGE_CURVE('',#281,#280,#121,.T.);
#350=EDGE_CURVE('',#282,#281,#122,.T.);
#351=EDGE_CURVE('',#283,#282,#123,.T.);
#352=EDGE_CURVE('',#280,#283,#124,.T.);
#353=EDGE_CURVE('',#284,#277,#125,.T.);
#354=EDGE_CURVE('',#285,#284,#126,.T.);
#355=EDGE_CURVE('',#274,#285,#127,.T.);
#356=EDGE_CURVE('',#286,#284,#128,.T.);
#357=EDGE_CURVE('',#286,#287,#129,.T.);
#358=EDGE_CURVE('',#287,#285,#130,.T.);
#359=EDGE_CURVE('',#282,#288,#131,.T.);
#360=EDGE_CURVE('',#288,#289,#132,.T.);
#361=EDGE_CURVE('',#283,#289,#133,.T.);
#362=EDGE_CURVE('',#287,#290,#238,.T.);
#363=EDGE_CURVE('',#291,#290,#134,.T.);
#364=EDGE_CURVE('',#291,#292,#239,.T.);
#365=EDGE_CURVE('',#293,#292,#135,.T.);
#366=EDGE_CURVE('',#293,#294,#240,.T.);
#367=EDGE_CURVE('',#295,#294,#136,.T.);
#368=EDGE_CURVE('',#295,#296,#241,.T.);
#369=EDGE_CURVE('',#296,#297,#137,.T.);
#370=EDGE_CURVE('',#297,#298,#242,.T.);
#371=EDGE_CURVE('',#299,#298,#243,.T.);
#372=EDGE_CURVE('',#300,#299,#244,.T.);
#373=EDGE_CURVE('',#300,#301,#245,.T.);
#374=EDGE_CURVE('',#301,#302,#246,.T.);
#375=EDGE_CURVE('',#302,#303,#247,.T.);
#376=EDGE_CURVE('',#303,#304,#248,.T.);
#377=EDGE_CURVE('',#304,#305,#138,.T.);
#378=EDGE_CURVE('',#305,#306,#249,.T.);
#379=EDGE_CURVE('',#307,#306,#139,.T.);
#380=EDGE_CURVE('',#307,#308,#250,.T.);
#381=EDGE_CURVE('',#308,#309,#140,.T.);
#382=EDGE_CURVE('',#309,#310,#251,.T.);
#383=EDGE_CURVE('',#310,#311,#141,.T.);
#384=EDGE_CURVE('',#311,#288,#252,.T.);
#385=EDGE_CURVE('',#312,#312,#253,.T.);
#386=EDGE_CURVE('',#313,#313,#254,.T.);
#387=EDGE_CURVE('',#314,#314,#255,.T.);
#388=EDGE_CURVE('',#314,#315,#142,.T.);
#389=EDGE_CURVE('',#315,#315,#256,.T.);
#390=EDGE_CURVE('',#312,#316,#143,.T.);
#391=EDGE_CURVE('',#316,#316,#257,.T.);
#392=EDGE_CURVE('',#317,#317,#258,.T.);
#393=EDGE_CURVE('',#317,#313,#144,.T.);
#394=EDGE_CURVE('',#299,#318,#145,.T.);
#395=EDGE_CURVE('',#319,#318,#259,.T.);
#396=EDGE_CURVE('',#319,#300,#146,.T.);
#397=EDGE_CURVE('',#301,#320,#147,.T.);
#398=EDGE_CURVE('',#320,#321,#260,.T.);
#399=EDGE_CURVE('',#302,#321,#148,.T.);
#400=EDGE_CURVE('',#322,#323,#149,.T.);
#401=EDGE_CURVE('',#322,#295,#150,.T.);
#402=EDGE_CURVE('',#294,#323,#151,.T.);
#403=EDGE_CURVE('',#289,#324,#261,.T.);
#404=EDGE_CURVE('',#325,#324,#152,.T.);
#405=EDGE_CURVE('',#325,#326,#262,.T.);
#406=EDGE_CURVE('',#327,#326,#153,.T.);
#407=EDGE_CURVE('',#327,#328,#263,.T.);
#408=EDGE_CURVE('',#328,#329,#154,.T.);
#409=EDGE_CURVE('',#329,#330,#264,.T.);
#410=EDGE_CURVE('',#330,#331,#155,.T.);
#411=EDGE_CURVE('',#331,#332,#265,.T.);
#412=EDGE_CURVE('',#321,#332,#266,.T.);
#413=EDGE_CURVE('',#320,#319,#267,.T.);
#414=EDGE_CURVE('',#318,#333,#268,.T.);
#415=EDGE_CURVE('',#333,#334,#269,.T.);
#416=EDGE_CURVE('',#334,#335,#156,.T.);
#417=EDGE_CURVE('',#335,#322,#270,.T.);
#418=EDGE_CURVE('',#323,#336,#271,.T.);
#419=EDGE_CURVE('',#336,#337,#157,.T.);
#420=EDGE_CURVE('',#337,#338,#272,.T.);
#421=EDGE_CURVE('',#338,#339,#158,.T.);
#422=EDGE_CURVE('',#339,#286,#273,.T.);
#423=EDGE_CURVE('',#306,#329,#159,.T.);
#424=EDGE_CURVE('',#328,#307,#160,.T.);
#425=EDGE_CURVE('',#332,#303,#161,.T.);
#426=EDGE_CURVE('',#298,#333,#162,.T.);
#427=EDGE_CURVE('',#296,#335,#163,.T.);
#428=EDGE_CURVE('',#334,#297,#164,.T.);
#429=EDGE_CURVE('',#304,#331,#165,.T.);
#430=EDGE_CURVE('',#330,#305,#166,.T.);
#431=EDGE_CURVE('',#324,#311,#167,.T.);
#432=EDGE_CURVE('',#310,#325,#168,.T.);
#433=EDGE_CURVE('',#308,#327,#169,.T.);
#434=EDGE_CURVE('',#326,#309,#170,.T.);
#435=EDGE_CURVE('',#336,#293,#171,.T.);
#436=EDGE_CURVE('',#292,#337,#172,.T.);
#437=EDGE_CURVE('',#290,#339,#173,.T.);
#438=EDGE_CURVE('',#338,#291,#174,.T.);
#439=ORIENTED_EDGE('',*,*,#340,.T.);
#440=ORIENTED_EDGE('',*,*,#341,.T.);
#441=ORIENTED_EDGE('',*,*,#342,.T.);
#442=ORIENTED_EDGE('',*,*,#343,.T.);
#443=ORIENTED_EDGE('',*,*,#341,.F.);
#444=ORIENTED_EDGE('',*,*,#344,.F.);
#445=ORIENTED_EDGE('',*,*,#345,.F.);
#446=ORIENTED_EDGE('',*,*,#346,.F.);
#447=ORIENTED_EDGE('',*,*,#347,.T.);
#448=ORIENTED_EDGE('',*,*,#345,.T.);
#449=ORIENTED_EDGE('',*,*,#348,.T.);
#450=ORIENTED_EDGE('',*,*,#349,.T.);
#451=ORIENTED_EDGE('',*,*,#349,.F.);
#452=ORIENTED_EDGE('',*,*,#350,.F.);
#453=ORIENTED_EDGE('',*,*,#351,.F.);
#454=ORIENTED_EDGE('',*,*,#352,.F.);
#455=ORIENTED_EDGE('',*,*,#343,.F.);
#456=ORIENTED_EDGE('',*,*,#353,.F.);
#457=ORIENTED_EDGE('',*,*,#354,.F.);
#458=ORIENTED_EDGE('',*,*,#355,.F.);
#459=ORIENTED_EDGE('',*,*,#354,.T.);
#460=ORIENTED_EDGE('',*,*,#356,.F.);
#461=ORIENTED_EDGE('',*,*,#357,.T.);
#462=ORIENTED_EDGE('',*,*,#358,.T.);
#463=ORIENTED_EDGE('',*,*,#351,.T.);
#464=ORIENTED_EDGE('',*,*,#359,.T.);
#465=ORIENTED_EDGE('',*,*,#360,.T.);
#466=ORIENTED_EDGE('',*,*,#361,.F.);
#467=ORIENTED_EDGE('',*,*,#350,.T.);
#468=ORIENTED_EDGE('',*,*,#348,.F.);
#469=ORIENTED_EDGE('',*,*,#344,.T.);
#470=ORIENTED_EDGE('',*,*,#340,.F.);
#471=ORIENTED_EDGE('',*,*,#355,.T.);
#472=ORIENTED_EDGE('',*,*,#358,.F.);
#473=ORIENTED_EDGE('',*,*,#362,.T.);
#474=ORIENTED_EDGE('',*,*,#363,.F.);
#475=ORIENTED_EDGE('',*,*,#364,.T.);
#476=ORIENTED_EDGE('',*,*,#365,.F.);
#477=ORIENTED_EDGE('',*,*,#366,.T.);
#478=ORIENTED_EDGE('',*,*,#367,.F.);
#479=ORIENTED_EDGE('',*,*,#368,.T.);
#480=ORIENTED_EDGE('',*,*,#369,.T.);
#481=ORIENTED_EDGE('',*,*,#370,.T.);
#482=ORIENTED_EDGE('',*,*,#371,.F.);
#483=ORIENTED_EDGE('',*,*,#372,.F.);
#484=ORIENTED_EDGE('',*,*,#373,.T.);
#485=ORIENTED_EDGE('',*,*,#374,.T.);
#486=ORIENTED_EDGE('',*,*,#375,.T.);
#487=ORIENTED_EDGE('',*,*,#376,.T.);
#488=ORIENTED_EDGE('',*,*,#377,.T.);
#489=ORIENTED_EDGE('',*,*,#378,.T.);
#490=ORIENTED_EDGE('',*,*,#379,.F.);
#491=ORIENTED_EDGE('',*,*,#380,.T.);
#492=ORIENTED_EDGE('',*,*,#381,.T.);
#493=ORIENTED_EDGE('',*,*,#382,.T.);
#494=ORIENTED_EDGE('',*,*,#383,.T.);
#495=ORIENTED_EDGE('',*,*,#384,.T.);
#496=ORIENTED_EDGE('',*,*,#359,.F.);
#497=ORIENTED_EDGE('',*,*,#385,.T.);
#498=ORIENTED_EDGE('',*,*,#386,.F.);
#499=ORIENTED_EDGE('',*,*,#387,.F.);
#500=ORIENTED_EDGE('',*,*,#387,.T.);
#501=ORIENTED_EDGE('',*,*,#388,.T.);
#502=ORIENTED_EDGE('',*,*,#389,.F.);
#503=ORIENTED_EDGE('',*,*,#388,.F.);
#504=ORIENTED_EDGE('',*,*,#385,.F.);
#505=ORIENTED_EDGE('',*,*,#390,.T.);
#506=ORIENTED_EDGE('',*,*,#391,.T.);
#507=ORIENTED_EDGE('',*,*,#390,.F.);
#508=ORIENTED_EDGE('',*,*,#392,.F.);
#509=ORIENTED_EDGE('',*,*,#393,.T.);
#510=ORIENTED_EDGE('',*,*,#386,.T.);
#511=ORIENTED_EDGE('',*,*,#393,.F.);
#512=ORIENTED_EDGE('',*,*,#372,.T.);
#513=ORIENTED_EDGE('',*,*,#394,.T.);
#514=ORIENTED_EDGE('',*,*,#395,.F.);
#515=ORIENTED_EDGE('',*,*,#396,.T.);
#516=ORIENTED_EDGE('',*,*,#374,.F.);
#517=ORIENTED_EDGE('',*,*,#397,.T.);
#518=ORIENTED_EDGE('',*,*,#398,.T.);
#519=ORIENTED_EDGE('',*,*,#399,.F.);
#520=ORIENTED_EDGE('',*,*,#400,.F.);
#521=ORIENTED_EDGE('',*,*,#401,.T.);
#522=ORIENTED_EDGE('',*,*,#367,.T.);
#523=ORIENTED_EDGE('',*,*,#402,.T.);
#524=ORIENTED_EDGE('',*,*,#352,.T.);
#525=ORIENTED_EDGE('',*,*,#361,.T.);
#526=ORIENTED_EDGE('',*,*,#403,.T.);
#527=ORIENTED_EDGE('',*,*,#404,.F.);
#528=ORIENTED_EDGE('',*,*,#405,.T.);
#529=ORIENTED_EDGE('',*,*,#406,.F.);
#530=ORIENTED_EDGE('',*,*,#407,.T.);
#531=ORIENTED_EDGE('',*,*,#408,.T.);
#532=ORIENTED_EDGE('',*,*,#409,.T.);
#533=ORIENTED_EDGE('',*,*,#410,.T.);
#534=ORIENTED_EDGE('',*,*,#411,.T.);
#535=ORIENTED_EDGE('',*,*,#412,.F.);
#536=ORIENTED_EDGE('',*,*,#398,.F.);
#537=ORIENTED_EDGE('',*,*,#413,.T.);
#538=ORIENTED_EDGE('',*,*,#395,.T.);
#539=ORIENTED_EDGE('',*,*,#414,.T.);
#540=ORIENTED_EDGE('',*,*,#415,.T.);
#541=ORIENTED_EDGE('',*,*,#416,.T.);
#542=ORIENTED_EDGE('',*,*,#417,.T.);
#543=ORIENTED_EDGE('',*,*,#400,.T.);
#544=ORIENTED_EDGE('',*,*,#418,.T.);
#545=ORIENTED_EDGE('',*,*,#419,.T.);
#546=ORIENTED_EDGE('',*,*,#420,.T.);
#547=ORIENTED_EDGE('',*,*,#421,.T.);
#548=ORIENTED_EDGE('',*,*,#422,.T.);
#549=ORIENTED_EDGE('',*,*,#356,.T.);
#550=ORIENTED_EDGE('',*,*,#353,.T.);
#551=ORIENTED_EDGE('',*,*,#342,.F.);
#552=ORIENTED_EDGE('',*,*,#346,.T.);
#553=ORIENTED_EDGE('',*,*,#347,.F.);
#554=ORIENTED_EDGE('',*,*,#389,.T.);
#555=ORIENTED_EDGE('',*,*,#391,.F.);
#556=ORIENTED_EDGE('',*,*,#392,.T.);
#557=ORIENTED_EDGE('',*,*,#379,.T.);
#558=ORIENTED_EDGE('',*,*,#423,.T.);
#559=ORIENTED_EDGE('',*,*,#408,.F.);
#560=ORIENTED_EDGE('',*,*,#424,.T.);
#561=ORIENTED_EDGE('',*,*,#412,.T.);
#562=ORIENTED_EDGE('',*,*,#425,.T.);
#563=ORIENTED_EDGE('',*,*,#375,.F.);
#564=ORIENTED_EDGE('',*,*,#399,.T.);
#565=ORIENTED_EDGE('',*,*,#371,.T.);
#566=ORIENTED_EDGE('',*,*,#426,.T.);
#567=ORIENTED_EDGE('',*,*,#414,.F.);
#568=ORIENTED_EDGE('',*,*,#394,.F.);
#569=ORIENTED_EDGE('',*,*,#369,.F.);
#570=ORIENTED_EDGE('',*,*,#427,.T.);
#571=ORIENTED_EDGE('',*,*,#416,.F.);
#572=ORIENTED_EDGE('',*,*,#428,.T.);
#573=ORIENTED_EDGE('',*,*,#377,.F.);
#574=ORIENTED_EDGE('',*,*,#429,.T.);
#575=ORIENTED_EDGE('',*,*,#410,.F.);
#576=ORIENTED_EDGE('',*,*,#430,.T.);
#577=ORIENTED_EDGE('',*,*,#404,.T.);
#578=ORIENTED_EDGE('',*,*,#431,.T.);
#579=ORIENTED_EDGE('',*,*,#383,.F.);
#580=ORIENTED_EDGE('',*,*,#432,.T.);
#581=ORIENTED_EDGE('',*,*,#381,.F.);
#582=ORIENTED_EDGE('',*,*,#433,.T.);
#583=ORIENTED_EDGE('',*,*,#406,.T.);
#584=ORIENTED_EDGE('',*,*,#434,.T.);
#585=ORIENTED_EDGE('',*,*,#382,.F.);
#586=ORIENTED_EDGE('',*,*,#434,.F.);
#587=ORIENTED_EDGE('',*,*,#405,.F.);
#588=ORIENTED_EDGE('',*,*,#432,.F.);
#589=ORIENTED_EDGE('',*,*,#419,.F.);
#590=ORIENTED_EDGE('',*,*,#435,.T.);
#591=ORIENTED_EDGE('',*,*,#365,.T.);
#592=ORIENTED_EDGE('',*,*,#436,.T.);
#593=ORIENTED_EDGE('',*,*,#363,.T.);
#594=ORIENTED_EDGE('',*,*,#437,.T.);
#595=ORIENTED_EDGE('',*,*,#421,.F.);
#596=ORIENTED_EDGE('',*,*,#438,.T.);
#597=ORIENTED_EDGE('',*,*,#364,.F.);
#598=ORIENTED_EDGE('',*,*,#438,.F.);
#599=ORIENTED_EDGE('',*,*,#420,.F.);
#600=ORIENTED_EDGE('',*,*,#436,.F.);
#601=ORIENTED_EDGE('',*,*,#366,.F.);
#602=ORIENTED_EDGE('',*,*,#435,.F.);
#603=ORIENTED_EDGE('',*,*,#418,.F.);
#604=ORIENTED_EDGE('',*,*,#402,.F.);
#605=ORIENTED_EDGE('',*,*,#362,.F.);
#606=ORIENTED_EDGE('',*,*,#357,.F.);
#607=ORIENTED_EDGE('',*,*,#422,.F.);
#608=ORIENTED_EDGE('',*,*,#437,.F.);
#609=ORIENTED_EDGE('',*,*,#380,.F.);
#610=ORIENTED_EDGE('',*,*,#424,.F.);
#611=ORIENTED_EDGE('',*,*,#407,.F.);
#612=ORIENTED_EDGE('',*,*,#433,.F.);
#613=ORIENTED_EDGE('',*,*,#384,.F.);
#614=ORIENTED_EDGE('',*,*,#431,.F.);
#615=ORIENTED_EDGE('',*,*,#403,.F.);
#616=ORIENTED_EDGE('',*,*,#360,.F.);
#617=ORIENTED_EDGE('',*,*,#417,.F.);
#618=ORIENTED_EDGE('',*,*,#427,.F.);
#619=ORIENTED_EDGE('',*,*,#368,.F.);
#620=ORIENTED_EDGE('',*,*,#401,.F.);
#621=ORIENTED_EDGE('',*,*,#370,.F.);
#622=ORIENTED_EDGE('',*,*,#428,.F.);
#623=ORIENTED_EDGE('',*,*,#415,.F.);
#624=ORIENTED_EDGE('',*,*,#426,.F.);
#625=ORIENTED_EDGE('',*,*,#373,.F.);
#626=ORIENTED_EDGE('',*,*,#396,.F.);
#627=ORIENTED_EDGE('',*,*,#413,.F.);
#628=ORIENTED_EDGE('',*,*,#397,.F.);
#629=ORIENTED_EDGE('',*,*,#376,.F.);
#630=ORIENTED_EDGE('',*,*,#425,.F.);
#631=ORIENTED_EDGE('',*,*,#411,.F.);
#632=ORIENTED_EDGE('',*,*,#429,.F.);
#633=ORIENTED_EDGE('',*,*,#409,.F.);
#634=ORIENTED_EDGE('',*,*,#423,.F.);
#635=ORIENTED_EDGE('',*,*,#378,.F.);
#636=ORIENTED_EDGE('',*,*,#430,.F.);
#637=CYLINDRICAL_SURFACE('',#707,1.);
#638=CYLINDRICAL_SURFACE('',#711,1.);
#639=CYLINDRICAL_SURFACE('',#737,1.55);
#640=CYLINDRICAL_SURFACE('',#739,1.55);
#641=CYLINDRICAL_SURFACE('',#741,1.55);
#642=CYLINDRICAL_SURFACE('',#743,24.);
#643=CYLINDRICAL_SURFACE('',#745,24.);
#644=CYLINDRICAL_SURFACE('',#763,8.);
#645=CYLINDRICAL_SURFACE('',#764,8.);
#646=CYLINDRICAL_SURFACE('',#769,3.);
#647=CYLINDRICAL_SURFACE('',#772,3.);
#648=CYLINDRICAL_SURFACE('',#773,2.);
#649=CYLINDRICAL_SURFACE('',#774,2.);
#650=CYLINDRICAL_SURFACE('',#775,2.);
#651=CYLINDRICAL_SURFACE('',#776,2.);
#652=CYLINDRICAL_SURFACE('',#777,1.);
#653=CYLINDRICAL_SURFACE('',#778,1.);
#654=CYLINDRICAL_SURFACE('',#779,1.);
#655=CYLINDRICAL_SURFACE('',#780,0.999999999999999);
#656=CYLINDRICAL_SURFACE('',#781,0.999999999999999);
#657=ADVANCED_FACE('',(#40),#637,.F.);
#658=ADVANCED_FACE('',(#41),#25,.F.);
#659=ADVANCED_FACE('',(#42),#638,.F.);
#660=ADVANCED_FACE('',(#43),#26,.F.);
#661=ADVANCED_FACE('',(#44),#27,.F.);
#662=ADVANCED_FACE('',(#45),#28,.F.);
#663=ADVANCED_FACE('',(#46),#29,.F.);
#664=ADVANCED_FACE('',(#47,#19,#20,#21),#30,.F.);
#665=ADVANCED_FACE('',(#48),#639,.F.);
#666=ADVANCED_FACE('',(#49),#640,.F.);
#667=ADVANCED_FACE('',(#50),#641,.F.);
#668=ADVANCED_FACE('',(#51),#642,.F.);
#669=ADVANCED_FACE('',(#52),#643,.F.);
#670=ADVANCED_FACE('',(#53),#31,.F.);
#671=ADVANCED_FACE('',(#54,#22,#23,#24),#32,.T.);
#672=ADVANCED_FACE('',(#55),#33,.F.);
#673=ADVANCED_FACE('',(#56),#644,.F.);
#674=ADVANCED_FACE('',(#57),#645,.F.);
#675=ADVANCED_FACE('',(#58),#34,.T.);
#676=ADVANCED_FACE('',(#59),#35,.T.);
#677=ADVANCED_FACE('',(#60),#36,.F.);
#678=ADVANCED_FACE('',(#61),#37,.F.);
#679=ADVANCED_FACE('',(#62),#646,.F.);
#680=ADVANCED_FACE('',(#63),#38,.T.);
#681=ADVANCED_FACE('',(#64),#39,.T.);
#682=ADVANCED_FACE('',(#65),#647,.F.);
#683=ADVANCED_FACE('',(#66),#648,.T.);
#684=ADVANCED_FACE('',(#67),#649,.T.);
#685=ADVANCED_FACE('',(#68),#650,.T.);
#686=ADVANCED_FACE('',(#69),#651,.T.);
#687=ADVANCED_FACE('',(#70),#652,.T.);
#688=ADVANCED_FACE('',(#71),#653,.T.);
#689=ADVANCED_FACE('',(#72),#654,.T.);
#690=ADVANCED_FACE('',(#73),#655,.T.);
#691=ADVANCED_FACE('',(#74),#656,.T.);
#692=CLOSED_SHELL('',(#657,#658,#659,#660,#661,#662,#663,#664,#665,#666,
#667,#668,#669,#670,#671,#672,#673,#674,#675,#676,#677,#678,#679,#680,#681,
#682,#683,#684,#685,#686,#687,#688,#689,#690,#691));
#693=DERIVED_UNIT_ELEMENT(#695,1.);
#694=DERIVED_UNIT_ELEMENT(#1208,-3.);
#695=(
MASS_UNIT()
NAMED_UNIT(*)
SI_UNIT(.KILO.,.GRAM.)
);
#696=DERIVED_UNIT((#693,#694));
#697=MEASURE_REPRESENTATION_ITEM('density measure',
POSITIVE_RATIO_MEASURE(7850.),#696);
#698=PROPERTY_DEFINITION_REPRESENTATION(#703,#700);
#699=PROPERTY_DEFINITION_REPRESENTATION(#704,#701);
#700=REPRESENTATION('material name',(#702),#1205);
#701=REPRESENTATION('density',(#697),#1205);
#702=DESCRIPTIVE_REPRESENTATION_ITEM('Steel','Steel');
#703=PROPERTY_DEFINITION('material property','material name',#1220);
#704=PROPERTY_DEFINITION('material property','density of part',#1220);
#705=AXIS2_PLACEMENT_3D('',#998,#783,#784);
#706=AXIS2_PLACEMENT_3D('',#999,#785,#786);
#707=AXIS2_PLACEMENT_3D('',#1000,#787,#788);
#708=AXIS2_PLACEMENT_3D('',#1003,#789,#790);
#709=AXIS2_PLACEMENT_3D('',#1007,#792,#793);
#710=AXIS2_PLACEMENT_3D('',#1009,#795,#796);
#711=AXIS2_PLACEMENT_3D('',#1015,#800,#801);
#712=AXIS2_PLACEMENT_3D('',#1017,#802,#803);
#713=AXIS2_PLACEMENT_3D('',#1019,#804,#805);
#714=AXIS2_PLACEMENT_3D('',#1021,#807,#808);
#715=AXIS2_PLACEMENT_3D('',#1027,#812,#813);
#716=AXIS2_PLACEMENT_3D('',#1033,#817,#818);
#717=AXIS2_PLACEMENT_3D('',#1039,#822,#823);
#718=AXIS2_PLACEMENT_3D('',#1045,#827,#828);
#719=AXIS2_PLACEMENT_3D('',#1047,#829,#830);
#720=AXIS2_PLACEMENT_3D('',#1051,#832,#833);
#721=AXIS2_PLACEMENT_3D('',#1055,#835,#836);
#722=AXIS2_PLACEMENT_3D('',#1059,#838,#839);
#723=AXIS2_PLACEMENT_3D('',#1063,#841,#842);
#724=AXIS2_PLACEMENT_3D('',#1065,#843,#844);
#725=AXIS2_PLACEMENT_3D('',#1067,#845,#846);
#726=AXIS2_PLACEMENT_3D('',#1069,#847,#848);
#727=AXIS2_PLACEMENT_3D('',#1071,#849,#850);
#728=AXIS2_PLACEMENT_3D('',#1073,#851,#852);
#729=AXIS2_PLACEMENT_3D('',#1075,#853,#854);
#730=AXIS2_PLACEMENT_3D('',#1079,#856,#857);
#731=AXIS2_PLACEMENT_3D('',#1083,#859,#860);
#732=AXIS2_PLACEMENT_3D('',#1087,#862,#863);
#733=AXIS2_PLACEMENT_3D('',#1090,#865,#866);
#734=AXIS2_PLACEMENT_3D('',#1092,#867,#868);
#735=AXIS2_PLACEMENT_3D('',#1094,#869,#870);
#736=AXIS2_PLACEMENT_3D('',#1096,#871,#872);
#737=AXIS2_PLACEMENT_3D('',#1097,#873,#874);
#738=AXIS2_PLACEMENT_3D('',#1100,#876,#877);
#739=AXIS2_PLACEMENT_3D('',#1101,#878,#879);
#740=AXIS2_PLACEMENT_3D('',#1104,#881,#882);
#741=AXIS2_PLACEMENT_3D('',#1105,#883,#884);
#742=AXIS2_PLACEMENT_3D('',#1107,#885,#886);
#743=AXIS2_PLACEMENT_3D('',#1109,#888,#889);
#744=AXIS2_PLACEMENT_3D('',#1113,#891,#892);
#745=AXIS2_PLACEMENT_3D('',#1115,#894,#895);
#746=AXIS2_PLACEMENT_3D('',#1119,#897,#898);
#747=AXIS2_PLACEMENT_3D('',#1121,#900,#901);
#748=AXIS2_PLACEMENT_3D('',#1127,#905,#906);
#749=AXIS2_PLACEMENT_3D('',#1129,#907,#908);
#750=AXIS2_PLACEMENT_3D('',#1133,#910,#911);
#751=AXIS2_PLACEMENT_3D('',#1137,#913,#914);
#752=AXIS2_PLACEMENT_3D('',#1141,#916,#917);
#753=AXIS2_PLACEMENT_3D('',#1145,#919,#920);
#754=AXIS2_PLACEMENT_3D('',#1146,#921,#922);
#755=AXIS2_PLACEMENT_3D('',#1147,#923,#924);
#756=AXIS2_PLACEMENT_3D('',#1149,#925,#926);
#757=AXIS2_PLACEMENT_3D('',#1151,#927,#928);
#758=AXIS2_PLACEMENT_3D('',#1154,#930,#931);
#759=AXIS2_PLACEMENT_3D('',#1156,#932,#933);
#760=AXIS2_PLACEMENT_3D('',#1160,#935,#936);
#761=AXIS2_PLACEMENT_3D('',#1163,#938,#939);
#762=AXIS2_PLACEMENT_3D('',#1164,#940,#941);
#763=AXIS2_PLACEMENT_3D('',#1167,#944,#945);
#764=AXIS2_PLACEMENT_3D('',#1169,#947,#948);
#765=AXIS2_PLACEMENT_3D('',#1171,#950,#951);
#766=AXIS2_PLACEMENT_3D('',#1174,#954,#955);
#767=AXIS2_PLACEMENT_3D('',#1177,#958,#959);
#768=AXIS2_PLACEMENT_3D('',#1180,#962,#963);
#769=AXIS2_PLACEMENT_3D('',#1183,#966,#967);
#770=AXIS2_PLACEMENT_3D('',#1184,#968,#969);
#771=AXIS2_PLACEMENT_3D('',#1187,#972,#973);
#772=AXIS2_PLACEMENT_3D('',#1190,#976,#977);
#773=AXIS2_PLACEMENT_3D('',#1191,#978,#979);
#774=AXIS2_PLACEMENT_3D('',#1192,#980,#981);
#775=AXIS2_PLACEMENT_3D('',#1193,#982,#983);
#776=AXIS2_PLACEMENT_3D('',#1194,#984,#985);
#777=AXIS2_PLACEMENT_3D('',#1195,#986,#987);
#778=AXIS2_PLACEMENT_3D('',#1196,#988,#989);
#779=AXIS2_PLACEMENT_3D('',#1197,#990,#991);
#780=AXIS2_PLACEMENT_3D('',#1198,#992,#993);
#781=AXIS2_PLACEMENT_3D('',#1199,#994,#995);
#782=AXIS2_PLACEMENT_3D('',#1200,#996,#997);
#783=DIRECTION('axis',(0.,0.,1.));
#784=DIRECTION('refdir',(1.,0.,0.));
#785=DIRECTION('axis',(0.,0.,1.));
#786=DIRECTION('refdir',(1.,0.,0.));
#787=DIRECTION('center_axis',(0.,1.,0.));
#788=DIRECTION('ref_axis',(-0.707106781186549,0.,-0.707106781186546));
#789=DIRECTION('center_axis',(0.,-1.,0.));
#790=DIRECTION('ref_axis',(-0.707106781186549,0.,-0.707106781186546));
#791=DIRECTION('',(0.,1.,0.));
#792=DIRECTION('center_axis',(0.,1.,0.));
#793=DIRECTION('ref_axis',(-0.707106781186549,0.,-0.707106781186546));
#794=DIRECTION('',(0.,-1.,0.));
#795=DIRECTION('center_axis',(0.,0.,-1.));
#796=DIRECTION('ref_axis',(-1.,0.,0.));
#797=DIRECTION('',(-1.,0.,0.));
#798=DIRECTION('',(0.,-1.,0.));
#799=DIRECTION('',(1.,0.,0.));
#800=DIRECTION('center_axis',(0.,-1.,0.));
#801=DIRECTION('ref_axis',(0.707106781186549,0.,-0.707106781186546));
#802=DIRECTION('center_axis',(0.,1.,0.));
#803=DIRECTION('ref_axis',(0.707106781186549,0.,-0.707106781186546));
#804=DIRECTION('center_axis',(0.,-1.,0.));
#805=DIRECTION('ref_axis',(0.707106781186549,0.,-0.707106781186546));
#806=DIRECTION('',(0.,1.,0.));
#807=DIRECTION('center_axis',(1.,0.,0.));
#808=DIRECTION('ref_axis',(0.,-1.,0.));
#809=DIRECTION('',(0.,0.,-1.));
#810=DIRECTION('',(0.,-1.,0.));
#811=DIRECTION('',(0.,0.,1.));
#812=DIRECTION('center_axis',(-1.,0.,0.));
#813=DIRECTION('ref_axis',(0.,1.,0.));
#814=DIRECTION('',(0.,0.,-1.));
#815=DIRECTION('',(0.,1.,0.));
#816=DIRECTION('',(0.,0.,1.));
#817=DIRECTION('center_axis',(0.,0.,-1.));
#818=DIRECTION('ref_axis',(-1.,0.,0.));
#819=DIRECTION('',(1.,0.,0.));
#820=DIRECTION('',(0.,-1.,0.));
#821=DIRECTION('',(1.,0.,0.));
#822=DIRECTION('center_axis',(0.,0.,-1.));
#823=DIRECTION('ref_axis',(-1.,0.,0.));
#824=DIRECTION('',(1.,0.,0.));
#825=DIRECTION('',(0.,1.,0.));
#826=DIRECTION('',(1.,0.,0.));
#827=DIRECTION('center_axis',(0.,1.,0.));
#828=DIRECTION('ref_axis',(0.,0.,1.));
#829=DIRECTION('center_axis',(0.,-1.,0.));
#830=DIRECTION('ref_axis',(0.,0.,1.));
#831=DIRECTION('',(0.,0.,1.));
#832=DIRECTION('center_axis',(0.,1.,0.));
#833=DIRECTION('ref_axis',(0.,0.,1.));
#834=DIRECTION('',(1.,0.,0.));
#835=DIRECTION('center_axis',(0.,-1.,0.));
#836=DIRECTION('ref_axis',(0.,0.,1.));
#837=DIRECTION('',(1.26161707343768E-16,0.,1.));
#838=DIRECTION('center_axis',(0.,-1.,0.));
#839=DIRECTION('ref_axis',(0.,0.,1.));
#840=DIRECTION('',(1.,0.,3.09772049281573E-17));
#841=DIRECTION('center_axis',(0.,-1.,0.));
#842=DIRECTION('ref_axis',(3.46944695195361E-15,0.,1.));
#843=DIRECTION('center_axis',(0.,-1.,0.));
#844=DIRECTION('ref_axis',(0.,0.,1.));
#845=DIRECTION('center_axis',(0.,-1.,0.));
#846=DIRECTION('ref_axis',(8.67361737988404E-16,0.,1.));
#847=DIRECTION('center_axis',(0.,-1.,0.));
#848=DIRECTION('ref_axis',(0.,0.,1.));
#849=DIRECTION('center_axis',(0.,1.,0.));
#850=DIRECTION('ref_axis',(0.,0.,1.));
#851=DIRECTION('center_axis',(0.,1.,0.));
#852=DIRECTION('ref_axis',(0.,0.,1.));
#853=DIRECTION('center_axis',(0.,-1.,0.));
#854=DIRECTION('ref_axis',(-3.46944695195362E-15,0.,1.));
#855=DIRECTION('',(1.,0.,3.09772049281573E-17));
#856=DIRECTION('center_axis',(0.,-1.,0.));
#857=DIRECTION('ref_axis',(0.,0.,1.));
#858=DIRECTION('',(-1.26161707343768E-16,0.,-1.));
#859=DIRECTION('center_axis',(0.,-1.,0.));
#860=DIRECTION('ref_axis',(0.,0.,1.));
#861=DIRECTION('',(-1.,0.,0.));
#862=DIRECTION('center_axis',(0.,1.,0.));
#863=DIRECTION('ref_axis',(0.,0.,1.));
#864=DIRECTION('',(0.,0.,1.));
#865=DIRECTION('center_axis',(0.,-1.,0.));
#866=DIRECTION('ref_axis',(0.,0.,1.));
#867=DIRECTION('center_axis',(0.,1.,0.));
#868=DIRECTION('ref_axis',(0.,0.,1.));
#869=DIRECTION('center_axis',(0.,-1.,0.));
#870=DIRECTION('ref_axis',(0.,0.,-1.));
#871=DIRECTION('center_axis',(0.,-1.,0.));
#872=DIRECTION('ref_axis',(0.,0.,1.));
#873=DIRECTION('center_axis',(0.,1.,0.));
#874=DIRECTION('ref_axis',(0.,0.,1.));
#875=DIRECTION('',(0.,1.,0.));
#876=DIRECTION('center_axis',(0.,-1.,0.));
#877=DIRECTION('ref_axis',(0.,0.,1.));
#878=DIRECTION('center_axis',(0.,1.,0.));
#879=DIRECTION('ref_axis',(0.,0.,1.));
#880=DIRECTION('',(0.,1.,0.));
#881=DIRECTION('center_axis',(0.,1.,0.));
#882=DIRECTION('ref_axis',(0.,0.,1.));
#883=DIRECTION('center_axis',(0.,-1.,0.));
#884=DIRECTION('ref_axis',(0.,0.,-1.));
#885=DIRECTION('center_axis',(0.,-1.,0.));
#886=DIRECTION('ref_axis',(0.,0.,-1.));
#887=DIRECTION('',(0.,-1.,0.));
#888=DIRECTION('center_axis',(0.,1.,0.));
#889=DIRECTION('ref_axis',(0.,0.,1.));
#890=DIRECTION('',(0.,1.,0.));
#891=DIRECTION('center_axis',(0.,-1.,0.));
#892=DIRECTION('ref_axis',(0.,0.,1.));
#893=DIRECTION('',(0.,-1.,0.));
#894=DIRECTION('center_axis',(0.,1.,0.));
#895=DIRECTION('ref_axis',(0.,0.,1.));
#896=DIRECTION('',(0.,1.,0.));
#897=DIRECTION('center_axis',(0.,1.,0.));
#898=DIRECTION('ref_axis',(0.,0.,1.));
#899=DIRECTION('',(0.,1.,0.));
#900=DIRECTION('center_axis',(1.,0.,-1.26161707343768E-16));
#901=DIRECTION('ref_axis',(-1.26161707343768E-16,0.,-1.));
#902=DIRECTION('',(1.26161707343768E-16,0.,1.));
#903=DIRECTION('',(0.,-1.,0.));
#904=DIRECTION('',(0.,1.,0.));
#905=DIRECTION('center_axis',(0.,1.,0.));
#906=DIRECTION('ref_axis',(0.,0.,1.));
#907=DIRECTION('center_axis',(0.,1.,0.));
#908=DIRECTION('ref_axis',(0.,0.,1.));
#909=DIRECTION('',(0.,0.,1.));
#910=DIRECTION('center_axis',(0.,-1.,0.));
#911=DIRECTION('ref_axis',(0.,0.,1.));
#912=DIRECTION('',(-1.,0.,0.));
#913=DIRECTION('center_axis',(0.,1.,0.));
#914=DIRECTION('ref_axis',(0.,0.,1.));
#915=DIRECTION('',(-1.26161707343768E-16,0.,-1.));
#916=DIRECTION('center_axis',(0.,1.,0.));
#917=DIRECTION('ref_axis',(0.,0.,1.));
#918=DIRECTION('',(-1.,0.,-3.09772049281573E-17));
#919=DIRECTION('center_axis',(0.,1.,0.));
#920=DIRECTION('ref_axis',(0.,0.,1.));
#921=DIRECTION('center_axis',(0.,1.,0.));
#922=DIRECTION('ref_axis',(0.,0.,1.));
#923=DIRECTION('center_axis',(0.,1.,0.));
#924=DIRECTION('ref_axis',(0.,0.,1.));
#925=DIRECTION('center_axis',(0.,-1.,0.));
#926=DIRECTION('ref_axis',(0.,0.,1.));
#927=DIRECTION('center_axis',(0.,1.,0.));
#928=DIRECTION('ref_axis',(0.,0.,1.));
#929=DIRECTION('',(-1.,0.,-3.09772049281573E-17));
#930=DIRECTION('center_axis',(0.,1.,0.));
#931=DIRECTION('ref_axis',(0.,0.,1.));
#932=DIRECTION('center_axis',(0.,1.,0.));
#933=DIRECTION('ref_axis',(0.,0.,1.));
#934=DIRECTION('',(1.,0.,0.));
#935=DIRECTION('center_axis',(0.,-1.,0.));
#936=DIRECTION('ref_axis',(0.,0.,1.));
#937=DIRECTION('',(0.,0.,1.));
#938=DIRECTION('center_axis',(0.,1.,0.));
#939=DIRECTION('ref_axis',(0.,0.,1.));
#940=DIRECTION('center_axis',(-1.,0.,1.26161707343768E-16));
#941=DIRECTION('ref_axis',(1.26161707343768E-16,0.,1.));
#942=DIRECTION('',(0.,1.,0.));
#943=DIRECTION('',(0.,-1.,0.));
#944=DIRECTION('center_axis',(0.,1.,0.));
#945=DIRECTION('ref_axis',(0.,0.,1.));
#946=DIRECTION('',(0.,-1.,0.));
#947=DIRECTION('center_axis',(0.,1.,0.));
#948=DIRECTION('ref_axis',(0.,0.,1.));
#949=DIRECTION('',(0.,1.,0.));
#950=DIRECTION('center_axis',(3.09772049281573E-17,0.,-1.));
#951=DIRECTION('ref_axis',(-1.,0.,-3.09772049281573E-17));
#952=DIRECTION('',(0.,1.,0.));
#953=DIRECTION('',(0.,-1.,0.));
#954=DIRECTION('center_axis',(3.09772049281573E-17,0.,-1.));
#955=DIRECTION('ref_axis',(-1.,0.,-3.09772049281573E-17));
#956=DIRECTION('',(0.,1.,0.));
#957=DIRECTION('',(0.,-1.,0.));
#958=DIRECTION('center_axis',(-1.,0.,0.));
#959=DIRECTION('ref_axis',(0.,0.,1.));
#960=DIRECTION('',(0.,-1.,0.));
#961=DIRECTION('',(0.,1.,0.));
#962=DIRECTION('center_axis',(0.,0.,-1.));
#963=DIRECTION('ref_axis',(-1.,0.,0.));
#964=DIRECTION('',(0.,1.,0.));
#965=DIRECTION('',(0.,-1.,0.));
#966=DIRECTION('center_axis',(0.,-1.,0.));
#967=DIRECTION('ref_axis',(0.,0.,-1.));
#968=DIRECTION('center_axis',(0.,0.,1.));
#969=DIRECTION('ref_axis',(1.,0.,0.));
#970=DIRECTION('',(0.,-1.,0.));
#971=DIRECTION('',(0.,1.,0.));
#972=DIRECTION('center_axis',(-1.,0.,0.));
#973=DIRECTION('ref_axis',(0.,0.,1.));
#974=DIRECTION('',(0.,1.,0.));
#975=DIRECTION('',(0.,-1.,0.));
#976=DIRECTION('center_axis',(0.,-1.,0.));
#977=DIRECTION('ref_axis',(0.,0.,-1.));
#978=DIRECTION('center_axis',(0.,-1.,0.));
#979=DIRECTION('ref_axis',(0.,0.,-1.));
#980=DIRECTION('center_axis',(0.,-1.,0.));
#981=DIRECTION('ref_axis',(0.,0.,-1.));
#982=DIRECTION('center_axis',(0.,1.,0.));
#983=DIRECTION('ref_axis',(0.,0.,1.));
#984=DIRECTION('center_axis',(0.,1.,0.));
#985=DIRECTION('ref_axis',(0.,0.,1.));
#986=DIRECTION('center_axis',(0.,1.,0.));
#987=DIRECTION('ref_axis',(0.,0.,1.));
#988=DIRECTION('center_axis',(0.,1.,0.));
#989=DIRECTION('ref_axis',(0.,0.,1.));
#990=DIRECTION('center_axis',(0.,1.,0.));
#991=DIRECTION('ref_axis',(1.22464679914735E-16,0.,-1.));
#992=DIRECTION('center_axis',(0.,1.,0.));
#993=DIRECTION('ref_axis',(0.,0.,1.));
#994=DIRECTION('center_axis',(0.,1.,0.));
#995=DIRECTION('ref_axis',(0.,0.,1.));
#996=DIRECTION('',(0.,0.,1.));
#997=DIRECTION('',(1.,0.,0.));
#998=CARTESIAN_POINT('',(0.,0.,0.));
#999=CARTESIAN_POINT('',(0.,0.,0.));
#1000=CARTESIAN_POINT('Origin',(-1.00000000000001,1.125,26.));
#1001=CARTESIAN_POINT('',(-2.00000000000001,0.,26.));
#1002=CARTESIAN_POINT('',(-1.00000000000001,0.,25.));
#1003=CARTESIAN_POINT('Origin',(-1.00000000000001,0.,26.));
#1004=CARTESIAN_POINT('',(-1.00000000000001,4.5,25.));
#1005=CARTESIAN_POINT('',(-1.00000000000001,1.125,25.));
#1006=CARTESIAN_POINT('',(-2.00000000000001,4.5,26.));
#1007=CARTESIAN_POINT('Origin',(-1.00000000000001,4.5,26.));
#1008=CARTESIAN_POINT('',(-2.00000000000001,1.125,26.));
#1009=CARTESIAN_POINT('Origin',(-1.19348975147204E-14,2.25,25.));
#1010=CARTESIAN_POINT('',(0.999999999999987,0.,25.));
#1011=CARTESIAN_POINT('',(-5.96744875736022E-15,0.,25.));
#1012=CARTESIAN_POINT('',(0.999999999999987,4.5,25.));
#1013=CARTESIAN_POINT('',(0.999999999999987,3.375,25.));
#1014=CARTESIAN_POINT('',(-5.96744875736022E-15,4.5,25.));
#1015=CARTESIAN_POINT('Origin',(0.999999999999987,3.375,26.));
#1016=CARTESIAN_POINT('',(1.99999999999999,4.5,26.));
#1017=CARTESIAN_POINT('Origin',(0.999999999999987,4.5,26.));
#1018=CARTESIAN_POINT('',(1.99999999999999,0.,26.));
#1019=CARTESIAN_POINT('Origin',(0.999999999999987,0.,26.));
#1020=CARTESIAN_POINT('',(1.99999999999999,3.375,26.));
#1021=CARTESIAN_POINT('Origin',(1.99999999999999,4.5,27.5));
#1022=CARTESIAN_POINT('',(1.99999999999999,0.,27.5));
#1023=CARTESIAN_POINT('',(1.99999999999999,0.,13.75));
#1024=CARTESIAN_POINT('',(1.99999999999999,4.5,27.5));
#1025=CARTESIAN_POINT('',(1.99999999999999,4.5,27.5));
#1026=CARTESIAN_POINT('',(1.99999999999999,4.5,13.75));
#1027=CARTESIAN_POINT('Origin',(-2.00000000000001,0.,27.5));
#1028=CARTESIAN_POINT('',(-2.00000000000001,4.5,27.5));
#1029=CARTESIAN_POINT('',(-2.00000000000001,4.5,13.75));
#1030=CARTESIAN_POINT('',(-2.00000000000001,0.,27.5));
#1031=CARTESIAN_POINT('',(-2.00000000000002,2.25,27.5));
#1032=CARTESIAN_POINT('',(-2.00000000000001,0.,13.75));
#1033=CARTESIAN_POINT('Origin',(-28.,4.5,27.5));
#1034=CARTESIAN_POINT('',(-19.,4.5,27.5));
#1035=CARTESIAN_POINT('',(-28.,4.5,27.5));
#1036=CARTESIAN_POINT('',(-19.,0.,27.5));
#1037=CARTESIAN_POINT('',(-19.,0.,27.5));
#1038=CARTESIAN_POINT('',(-28.,0.,27.5));
#1039=CARTESIAN_POINT('Origin',(-28.,4.5,27.5));
#1040=CARTESIAN_POINT('',(19.,0.,27.5));
#1041=CARTESIAN_POINT('',(-28.,0.,27.5));
#1042=CARTESIAN_POINT('',(19.,4.5,27.5));
#1043=CARTESIAN_POINT('',(19.,4.5,27.5));
#1044=CARTESIAN_POINT('',(-28.,4.5,27.5));
#1045=CARTESIAN_POINT('Origin',(0.,0.,0.));
#1046=CARTESIAN_POINT('',(-21.,0.,25.5));
#1047=CARTESIAN_POINT('Origin',(-19.,0.,25.5));
#1048=CARTESIAN_POINT('',(-21.,0.,23.5));
#1049=CARTESIAN_POINT('',(-21.,0.,27.5));
#1050=CARTESIAN_POINT('',(-24.,0.,20.5));
#1051=CARTESIAN_POINT('Origin',(-24.,0.,23.5));
#1052=CARTESIAN_POINT('',(-26.,0.,20.5));
#1053=CARTESIAN_POINT('',(-28.,0.,20.5));
#1054=CARTESIAN_POINT('',(-28.,0.,18.5));
#1055=CARTESIAN_POINT('Origin',(-26.,0.,18.5));
#1056=CARTESIAN_POINT('',(-28.,0.,15.5));
#1057=CARTESIAN_POINT('',(-28.,0.,-27.5));
#1058=CARTESIAN_POINT('',(-27.,0.,14.5));
#1059=CARTESIAN_POINT('Origin',(-27.,0.,15.5));
#1060=CARTESIAN_POINT('',(-22.6659728247507,0.,14.5));
#1061=CARTESIAN_POINT('',(-28.,0.,14.5));
#1062=CARTESIAN_POINT('',(-21.7586425108895,0.,15.0795815161669));
#1063=CARTESIAN_POINT('Origin',(-22.6659728247507,0.,15.5));
#1064=CARTESIAN_POINT('',(-16.,0.,19.5743504682526));
#1065=CARTESIAN_POINT('Origin',(-14.5,0.,11.7162336455017));
#1066=CARTESIAN_POINT('',(-0.460000000000002,0.,17.3100539652062));
#1067=CARTESIAN_POINT('Origin',(-11.5,0.,-4.));
#1068=CARTESIAN_POINT('',(0.460000000000002,0.,17.3100539652062));
#1069=CARTESIAN_POINT('Origin',(0.,0.,18.1979728804231));
#1070=CARTESIAN_POINT('',(16.,0.,19.5743504682526));
#1071=CARTESIAN_POINT('Origin',(11.5,0.,-4.));
#1072=CARTESIAN_POINT('',(21.7586425108895,0.,15.0795815161669));
#1073=CARTESIAN_POINT('Origin',(14.5,0.,11.7162336455017));
#1074=CARTESIAN_POINT('',(22.6659728247507,0.,14.5));
#1075=CARTESIAN_POINT('Origin',(22.6659728247507,0.,15.5));
#1076=CARTESIAN_POINT('',(27.,0.,14.5));
#1077=CARTESIAN_POINT('',(-28.,0.,14.5));
#1078=CARTESIAN_POINT('',(28.,0.,15.5));
#1079=CARTESIAN_POINT('Origin',(27.,0.,15.5));
#1080=CARTESIAN_POINT('',(28.,0.,18.5));
#1081=CARTESIAN_POINT('',(28.,0.,-27.5));
#1082=CARTESIAN_POINT('',(26.,0.,20.5));
#1083=CARTESIAN_POINT('Origin',(26.,0.,18.5));
#1084=CARTESIAN_POINT('',(24.,0.,20.5));
#1085=CARTESIAN_POINT('',(28.,0.,20.5));
#1086=CARTESIAN_POINT('',(21.,0.,23.5));
#1087=CARTESIAN_POINT('Origin',(24.,0.,23.5));
#1088=CARTESIAN_POINT('',(21.,0.,25.5));
#1089=CARTESIAN_POINT('',(21.,0.,27.5));
#1090=CARTESIAN_POINT('Origin',(19.,0.,25.5));
#1091=CARTESIAN_POINT('',(16.,0.,22.45));
#1092=CARTESIAN_POINT('Origin',(16.,0.,24.));
#1093=CARTESIAN_POINT('',(-1.8982025386784E-16,0.,24.05));
#1094=CARTESIAN_POINT('Origin',(0.,0.,22.5));
#1095=CARTESIAN_POINT('',(-16.,0.,22.45));
#1096=CARTESIAN_POINT('Origin',(-16.,0.,24.));
#1097=CARTESIAN_POINT('Origin',(-16.,0.,24.));
#1098=CARTESIAN_POINT('',(-16.,4.5,22.45));
#1099=CARTESIAN_POINT('',(-16.,0.,22.45));
#1100=CARTESIAN_POINT('Origin',(-16.,4.5,24.));
#1101=CARTESIAN_POINT('Origin',(16.,0.,24.));
#1102=CARTESIAN_POINT('',(16.,4.5,22.45));
#1103=CARTESIAN_POINT('',(16.,0.,22.45));
#1104=CARTESIAN_POINT('Origin',(16.,4.5,24.));
#1105=CARTESIAN_POINT('Origin',(0.,4.5,22.5));
#1106=CARTESIAN_POINT('',(-1.8982025386784E-16,4.5,24.05));
#1107=CARTESIAN_POINT('Origin',(0.,4.5,22.5));
#1108=CARTESIAN_POINT('',(-1.8982025386784E-16,4.5,24.05));
#1109=CARTESIAN_POINT('Origin',(-11.5,-23.5,-4.));
#1110=CARTESIAN_POINT('',(-16.,4.5,19.5743504682526));
#1111=CARTESIAN_POINT('',(-16.,-23.5,19.5743504682526));
#1112=CARTESIAN_POINT('',(-0.460000000000002,4.5,17.3100539652062));
#1113=CARTESIAN_POINT('Origin',(-11.5,4.5,-4.));
#1114=CARTESIAN_POINT('',(-0.46,-23.5,17.3100539652062));
#1115=CARTESIAN_POINT('Origin',(11.5,-23.5,-4.));
#1116=CARTESIAN_POINT('',(0.460000000000002,4.5,17.3100539652062));
#1117=CARTESIAN_POINT('',(0.46,-23.5,17.3100539652062));
#1118=CARTESIAN_POINT('',(16.,4.5,19.5743504682526));
#1119=CARTESIAN_POINT('Origin',(11.5,4.5,-4.));
#1120=CARTESIAN_POINT('',(16.,-23.5,19.5743504682526));
#1121=CARTESIAN_POINT('Origin',(-28.,4.5,-27.5));
#1122=CARTESIAN_POINT('',(-28.,4.5,15.5));
#1123=CARTESIAN_POINT('',(-28.,4.5,18.5));
#1124=CARTESIAN_POINT('',(-28.,4.5,-27.5));
#1125=CARTESIAN_POINT('',(-28.,0.,15.5));
#1126=CARTESIAN_POINT('',(-28.,4.5,18.5));
#1127=CARTESIAN_POINT('Origin',(0.,4.5,0.));
#1128=CARTESIAN_POINT('',(21.,4.5,25.5));
#1129=CARTESIAN_POINT('Origin',(19.,4.5,25.5));
#1130=CARTESIAN_POINT('',(21.,4.5,23.5));
#1131=CARTESIAN_POINT('',(21.,4.5,27.5));
#1132=CARTESIAN_POINT('',(24.,4.5,20.5));
#1133=CARTESIAN_POINT('Origin',(24.,4.5,23.5));
#1134=CARTESIAN_POINT('',(26.,4.5,20.5));
#1135=CARTESIAN_POINT('',(28.,4.5,20.5));
#1136=CARTESIAN_POINT('',(28.,4.5,18.5));
#1137=CARTESIAN_POINT('Origin',(26.,4.5,18.5));
#1138=CARTESIAN_POINT('',(28.,4.5,15.5));
#1139=CARTESIAN_POINT('',(28.,4.5,-27.5));
#1140=CARTESIAN_POINT('',(27.,4.5,14.5));
#1141=CARTESIAN_POINT('Origin',(27.,4.5,15.5));
#1142=CARTESIAN_POINT('',(22.6659728247507,4.5,14.5));
#1143=CARTESIAN_POINT('',(-4.4916947145828E-16,4.5,14.5));
#1144=CARTESIAN_POINT('',(21.7586425108895,4.5,15.0795815161669));
#1145=CARTESIAN_POINT('Origin',(22.6659728247507,4.5,15.5));
#1146=CARTESIAN_POINT('Origin',(14.5,4.5,11.7162336455017));
#1147=CARTESIAN_POINT('Origin',(0.,4.5,18.1979728804231));
#1148=CARTESIAN_POINT('',(-21.7586425108895,4.5,15.0795815161669));
#1149=CARTESIAN_POINT('Origin',(-14.5,4.5,11.7162336455017));
#1150=CARTESIAN_POINT('',(-22.6659728247507,4.5,14.5));
#1151=CARTESIAN_POINT('Origin',(-22.6659728247507,4.5,15.5));
#1152=CARTESIAN_POINT('',(-27.,4.5,14.5));
#1153=CARTESIAN_POINT('',(-4.4916947145828E-16,4.5,14.5));
#1154=CARTESIAN_POINT('Origin',(-27.,4.5,15.5));
#1155=CARTESIAN_POINT('',(-26.,4.5,20.5));
#1156=CARTESIAN_POINT('Origin',(-26.,4.5,18.5));
#1157=CARTESIAN_POINT('',(-24.,4.5,20.5));
#1158=CARTESIAN_POINT('',(-28.,4.5,20.5));
#1159=CARTESIAN_POINT('',(-21.,4.5,23.5));
#1160=CARTESIAN_POINT('Origin',(-24.,4.5,23.5));
#1161=CARTESIAN_POINT('',(-21.,4.5,25.5));
#1162=CARTESIAN_POINT('',(-21.,4.5,27.5));
#1163=CARTESIAN_POINT('Origin',(-19.,4.5,25.5));
#1164=CARTESIAN_POINT('Origin',(28.,4.5,-27.5));
#1165=CARTESIAN_POINT('',(28.,4.5,15.5));
#1166=CARTESIAN_POINT('',(28.,4.5,18.5));
#1167=CARTESIAN_POINT('Origin',(14.5,-23.5,11.7162336455017));
#1168=CARTESIAN_POINT('',(21.7586425108895,-23.5,15.0795815161669));
#1169=CARTESIAN_POINT('Origin',(-14.5,-23.5,11.7162336455017));
#1170=CARTESIAN_POINT('',(-21.7586425108895,-23.5,15.0795815161669));
#1171=CARTESIAN_POINT('Origin',(-28.,10.,14.5));
#1172=CARTESIAN_POINT('',(-27.,4.5,14.5));
#1173=CARTESIAN_POINT('',(-22.6659728247507,10.,14.5));
#1174=CARTESIAN_POINT('Origin',(-28.,10.,14.5));
#1175=CARTESIAN_POINT('',(22.6659728247507,4.5,14.5));
#1176=CARTESIAN_POINT('',(27.,0.,14.5));
#1177=CARTESIAN_POINT('Origin',(21.,0.,27.5));
#1178=CARTESIAN_POINT('',(21.,0.,25.5));
#1179=CARTESIAN_POINT('',(21.,4.5,23.5));
#1180=CARTESIAN_POINT('Origin',(28.,0.,20.5));
#1181=CARTESIAN_POINT('',(26.,0.,20.5));
#1182=CARTESIAN_POINT('',(24.,0.,20.5));
#1183=CARTESIAN_POINT('Origin',(24.,0.,23.5));
#1184=CARTESIAN_POINT('Origin',(-28.,0.,20.5));
#1185=CARTESIAN_POINT('',(-26.,0.,20.5));
#1186=CARTESIAN_POINT('',(-24.,4.5,20.5));
#1187=CARTESIAN_POINT('Origin',(-21.,0.,27.5));
#1188=CARTESIAN_POINT('',(-21.,4.5,25.5));
#1189=CARTESIAN_POINT('',(-21.,0.,23.5));
#1190=CARTESIAN_POINT('Origin',(-24.,0.,23.5));
#1191=CARTESIAN_POINT('Origin',(-26.,4.5,18.5));
#1192=CARTESIAN_POINT('Origin',(-19.,0.,25.5));
#1193=CARTESIAN_POINT('Origin',(26.,0.,18.5));
#1194=CARTESIAN_POINT('Origin',(19.,4.5,25.5));
#1195=CARTESIAN_POINT('Origin',(-27.,4.5,15.5));
#1196=CARTESIAN_POINT('Origin',(-22.6659728247507,-23.5,15.5));
#1197=CARTESIAN_POINT('Origin',(0.,-23.5,18.1979728804231));
#1198=CARTESIAN_POINT('Origin',(22.6659728247507,-23.5,15.5));
#1199=CARTESIAN_POINT('Origin',(27.,10.,15.5));
#1200=CARTESIAN_POINT('',(1.73472347597681E-15,5.,2.50000000000001));
#1201=UNCERTAINTY_MEASURE_WITH_UNIT(LENGTH_MEASURE(0.01),#1207,
'DISTANCE_ACCURACY_VALUE',
'Maximum model space distance between geometric entities at asserted c
onnectivities');
#1202=UNCERTAINTY_MEASURE_WITH_UNIT(LENGTH_MEASURE(0.01),#1207,
'DISTANCE_ACCURACY_VALUE',
'Maximum model space distance between geometric entities at asserted c
onnectivities');
#1203=UNCERTAINTY_MEASURE_WITH_UNIT(LENGTH_MEASURE(0.01),#1207,
'DISTANCE_ACCURACY_VALUE',
'Maximum model space distance between geometric entities at asserted c
onnectivities');
#1204=(
GEOMETRIC_REPRESENTATION_CONTEXT(3)
GLOBAL_UNCERTAINTY_ASSIGNED_CONTEXT((#1201))
GLOBAL_UNIT_ASSIGNED_CONTEXT((#1207,#1209,#1210))
REPRESENTATION_CONTEXT('','3D')
);
#1205=(
GEOMETRIC_REPRESENTATION_CONTEXT(3)
GLOBAL_UNCERTAINTY_ASSIGNED_CONTEXT((#1202))
GLOBAL_UNIT_ASSIGNED_CONTEXT((#1207,#1209,#1210))
REPRESENTATION_CONTEXT('','3D')
);
#1206=(
GEOMETRIC_REPRESENTATION_CONTEXT(3)
GLOBAL_UNCERTAINTY_ASSIGNED_CONTEXT((#1203))
GLOBAL_UNIT_ASSIGNED_CONTEXT((#1207,#1209,#1210))
REPRESENTATION_CONTEXT('','3D')
);
#1207=(
LENGTH_UNIT()
NAMED_UNIT(*)
SI_UNIT(.MILLI.,.METRE.)
);
#1208=(
LENGTH_UNIT()
NAMED_UNIT(*)
SI_UNIT($,.METRE.)
);
#1209=(
NAMED_UNIT(*)
PLANE_ANGLE_UNIT()
SI_UNIT($,.RADIAN.)
);
#1210=(
NAMED_UNIT(*)
SI_UNIT($,.STERADIAN.)
SOLID_ANGLE_UNIT()
);
#1211=SHAPE_DEFINITION_REPRESENTATION(#1213,#1216);
#1212=SHAPE_DEFINITION_REPRESENTATION(#1214,#1217);
#1213=PRODUCT_DEFINITION_SHAPE('',$,#1219);
#1214=PRODUCT_DEFINITION_SHAPE('',$,#1220);
#1215=PRODUCT_DEFINITION_SHAPE($,$,#14);
#1216=SHAPE_REPRESENTATION('',(#705,#782),#1204);
#1217=SHAPE_REPRESENTATION('',(#706),#1205);
#1218=PRODUCT_DEFINITION_CONTEXT('part definition',#1226,'design');
#1219=PRODUCT_DEFINITION('YUDX Extruder','YUDX Extruder v9',#1221,#1218);
#1220=PRODUCT_DEFINITION('rack_below_part','rack_below_part',#1222,#1218);
#1221=PRODUCT_DEFINITION_FORMATION('',$,#1228);
#1222=PRODUCT_DEFINITION_FORMATION('',$,#1229);
#1223=PRODUCT_RELATED_PRODUCT_CATEGORY('YUDX Extruder v9',
'YUDX Extruder v9',(#1228));
#1224=PRODUCT_RELATED_PRODUCT_CATEGORY('rack_below_part',
'rack_below_part',(#1229));
#1225=APPLICATION_PROTOCOL_DEFINITION('international standard',
'automotive_design',2009,#1226);
#1226=APPLICATION_CONTEXT(
'Core Data for Automotive Mechanical Design Process');
#1227=PRODUCT_CONTEXT('part definition',#1226,'mechanical');
#1228=PRODUCT('YUDX Extruder','YUDX Extruder v9','STEP AP214',(#1227));
#1229=PRODUCT('rack_below_part','rack_below_part',$,(#1227));
#1230=PRESENTATION_STYLE_ASSIGNMENT((#1233));
#1231=PRESENTATION_STYLE_ASSIGNMENT((#1234));
#1232=PRESENTATION_STYLE_ASSIGNMENT((#1235));
#1233=SURFACE_STYLE_USAGE(.BOTH.,#1236);
#1234=SURFACE_STYLE_USAGE(.BOTH.,#1237);
#1235=SURFACE_STYLE_USAGE(.BOTH.,#1238);
#1236=SURFACE_SIDE_STYLE('',(#1239));
#1237=SURFACE_SIDE_STYLE('',(#1240));
#1238=SURFACE_SIDE_STYLE('',(#1241));
#1239=SURFACE_STYLE_FILL_AREA(#1242);
#1240=SURFACE_STYLE_FILL_AREA(#1243);
#1241=SURFACE_STYLE_FILL_AREA(#1244);
#1242=FILL_AREA_STYLE('Steel - Satin',(#1245));
#1243=FILL_AREA_STYLE('Black',(#1246));
#1244=FILL_AREA_STYLE('Opaque(255,255,255)',(#1247));
#1245=FILL_AREA_STYLE_COLOUR('Steel - Satin',#1248);
#1246=FILL_AREA_STYLE_COLOUR('Black',#1249);
#1247=FILL_AREA_STYLE_COLOUR('Opaque(255,255,255)',#1250);
#1248=COLOUR_RGB('Steel - Satin',0.627450980392157,0.627450980392157,0.627450980392157);
#1249=COLOUR_RGB('Black',0.172549019607843,0.172549019607843,0.172549019607843);
#1250=COLOUR_RGB('Opaque(255,255,255)',1.,1.,1.);
ENDSEC;
END-ISO-10303-21;
